HIERARCHY
ROOT Hip
{
	OFFSET 0 1.131 0.0052
	CHANNELS 6 Xposition Yposition Zposition Xrotation Yrotation Zrotation
	JOINT Abdomen
	{
		OFFSET 0 -0.047353 -0.05
		CHANNELS 3 Xrotation Zrotation Yrotation
		JOINT Chest
		{
			OFFSET 0 0.132153 0.007439
			CHANNELS 3 Xrotation Zrotation Yrotation
			JOINT Neck
			{
				OFFSET 0 0.3078 0.006161
				CHANNELS 3 Xrotation Zrotation Yrotation
				JOINT Head_comp
				{
					OFFSET 0 0.0884 0.013
					CHANNELS 3 Xrotation Yrotation Zrotation
					End Site
					{
						OFFSET -0 0.156 0.0624
					}
				}
			}
			JOINT Left_Collar
			{
				OFFSET 0.02282 0.250342 0.017193
				CHANNELS 2 Yrotation Zrotation
				JOINT Left_Shoulder
				{
					OFFSET 0.15421 0 0
					CHANNELS 3 Xrotation Yrotation Zrotation
					JOINT Left_Forearm
					{
						OFFSET 0.265212 0 0
						CHANNELS 2 Yrotation Xrotation
						JOINT Left_Hand
						{
							OFFSET 0.27571 0 0
							CHANNELS 2 Zrotation Yrotation
							JOINT L1ProxPhalanx
							{
								OFFSET 0.014142 0.001733 0.014142
								CHANNELS 3 Yrotation Zrotation Xrotation
								JOINT L1MidPhalanx
								{
									OFFSET 0.04 0 0
									CHANNELS 1 Zrotation
									JOINT L1DistPhalanx
									{
										OFFSET 0.035 0 0
										CHANNELS 1 Zrotation
										End Site
										{
											OFFSET 0.029 -0 -0
										}
									}
								}
							}
							JOINT L2ProxPhalanx
							{
								OFFSET 0.0821037 0.001578 0.0219996
								CHANNELS 2 Yrotation Zrotation
								JOINT L2MidPhalanx
								{
									OFFSET 0.04 0 0
									CHANNELS 1 Zrotation
									JOINT L2DistPhalanx
									{
										OFFSET 0.028 0 0
										CHANNELS 1 Zrotation
										End Site
										{
											OFFSET 0.02 -0 -0
										}
									}
								}
							}
							JOINT L3ProxPhalanx
							{
								OFFSET 0.083 0 0
								CHANNELS 2 Yrotation Zrotation
								JOINT L3MidPhalanx
								{
									OFFSET 0.053 0 0
									CHANNELS 1 Zrotation
									JOINT L3DistPhalanx
									{
										OFFSET 0.03 0 0
										CHANNELS 1 Zrotation
										End Site
										{
											OFFSET 0.023 -0 -0
										}
									}
								}
							}
							JOINT L4ProxPhalanx
							{
								OFFSET 0.077274 -0.000761 -0.0207055
								CHANNELS 2 Yrotation Zrotation
								JOINT L4MidPhalanx
								{
									OFFSET 0.05 0 0
									CHANNELS 1 Zrotation
									JOINT L4DistPhalanx
									{
										OFFSET 0.03 0 0
										CHANNELS 1 Zrotation
										End Site
										{
											OFFSET 0.023 -0 -0
										}
									}
								}
							}
							JOINT L5ProxPhalanx
							{
								OFFSET 0.0675499 -0.001644 -0.039
								CHANNELS 2 Yrotation Zrotation
								JOINT L5MidPhalanx
								{
									OFFSET 0.04 0 0
									CHANNELS 1 Zrotation
									JOINT L5DistPhalanx
									{
										OFFSET 0.021 0 0
										CHANNELS 1 Zrotation
										End Site
										{
											OFFSET 0.022 -0 -0
										}
									}
								}
							}
						}
					}
				}
			}
			JOINT Right_Collar
			{
				OFFSET -0.02282 0.250342 0.017193
				CHANNELS 2 Yrotation Zrotation
				JOINT Right_Shoulder
				{
					OFFSET -0.15421 0 0
					CHANNELS 3 Xrotation Yrotation Zrotation
					JOINT Right_Forearm
					{
						OFFSET -0.265212 0 0
						CHANNELS 2 Yrotation Xrotation
						JOINT Right_Hand
						{
							OFFSET -0.27571 3e-006 0
							CHANNELS 2 Zrotation Yrotation
							JOINT R1ProxPhalanx
							{
								OFFSET -0.014142 0.001733 0.014142
								CHANNELS 3 Yrotation Zrotation Xrotation
								JOINT R1MidPhalanx
								{
									OFFSET -0.04 0 0
									CHANNELS 1 Zrotation
									JOINT R1DistPhalanx
									{
										OFFSET -0.035 0 0
										CHANNELS 1 Zrotation
										End Site
										{
											OFFSET -0.029 -0 -0
										}
									}
								}
							}
							JOINT R2ProxPhalanx
							{
								OFFSET -0.0821037 0.001578 0.0219996
								CHANNELS 2 Yrotation Zrotation
								JOINT R2MidPhalanx
								{
									OFFSET -0.04 0 0
									CHANNELS 1 Zrotation
									JOINT R2DistPhalanx
									{
										OFFSET -0.028 0 0
										CHANNELS 1 Zrotation
										End Site
										{
											OFFSET -0.02 -0 -0
										}
									}
								}
							}
							JOINT R3ProxPhalanx
							{
								OFFSET -0.083 0 0
								CHANNELS 2 Yrotation Zrotation
								JOINT R3MidPhalanx
								{
									OFFSET -0.053 0 0
									CHANNELS 1 Zrotation
									JOINT R3DistPhalanx
									{
										OFFSET -0.03 0 0
										CHANNELS 1 Zrotation
										End Site
										{
											OFFSET -0.023 -0 -0
										}
									}
								}
							}
							JOINT R4ProxPhalanx
							{
								OFFSET -0.077274 -0.000761 -0.0207055
								CHANNELS 2 Yrotation Zrotation
								JOINT R4MidPhalanx
								{
									OFFSET -0.05 0 0
									CHANNELS 1 Zrotation
									JOINT R4DistPhalanx
									{
										OFFSET -0.03 0 0
										CHANNELS 1 Zrotation
										End Site
										{
											OFFSET -0.023 -0 -0
										}
									}
								}
							}
							JOINT R5ProxPhalanx
							{
								OFFSET -0.0675499 -0.001644 -0.039
								CHANNELS 2 Yrotation Zrotation
								JOINT R5MidPhalanx
								{
									OFFSET -0.04 0 0
									CHANNELS 1 Zrotation
									JOINT R5DistPhalanx
									{
										OFFSET -0.021 0 0
										CHANNELS 1 Zrotation
										End Site
										{
											OFFSET -0.022 -0 -0
										}
									}
								}
							}
						}
					}
				}
			}
		}
	}
	JOINT Left_Thigh
	{
		OFFSET 0.1118 -0.1612 -0.0442
		CHANNELS 3 Xrotation Zrotation Yrotation
		JOINT Left_Shin
		{
			OFFSET 0 -0.477856 0
			CHANNELS 1 Xrotation
			JOINT Left_Foot
			{
				OFFSET 0 -0.431952 0
				CHANNELS 2 Xrotation Zrotation
				JOINT Left_Toe
				{
					OFFSET 0 -0.0442 0.119
					CHANNELS 1 Xrotation
					End Site
					{
						OFFSET -0 -0 0.07
					}
				}
			}
		}
	}
	JOINT Right_Thigh
	{
		OFFSET -0.1118 -0.1612 -0.0442
		CHANNELS 3 Xrotation Zrotation Yrotation
		JOINT Right_Shin
		{
			OFFSET 0 -0.477856 0
			CHANNELS 1 Xrotation
			JOINT Right_Foot
			{
				OFFSET 0 -0.431952 0
				CHANNELS 2 Xrotation Zrotation
				JOINT Right_Toe
				{
					OFFSET 0 -0.0442 0.119
					CHANNELS 1 Xrotation
					End Site
					{
						OFFSET -0 -0 0.07
					}
				}
			}
		}
	}
}
MOTION
Frames: 9
Frame Time: 0.009975
-0.10033 -0.0601627 0.0523812 -8.09342e-013 7.60024e-008 -5.10916e-006 0 -0 0 0 -0 0 0 -0 0 -0.713243 0.288274 -4.82892e-012 8.27208 -31.015 10.4644 -9.86857 -24.2564 -125.767 -7.17761 3.72125 -16.9043 -40.5316 -43.5896 103.283 -7.10789 -4.81548 2.69559 -7.40342 -2.98992 -6.72733 5.89092 0.508958 -5.4973 -5.3917 11.1257 1.19015 -12.1062 -9.35422 19.4153 3.33565 -41.2194 -1.46018 -4.89652 25.5035 0.871545 16.9513 26.1581 118.882 -5.2869 -10.3082 10.1537 22.5747 52.1345 100.952 13.9884 17.2347 -10.6838 39.5561 10.0473 9.62049 -16.3456 32.6969 19.691 15.0491 -24.44 14.3035 59.5903 -1.6982 -45.7274 -1.56979 109.352 -34.4722 0.831383 -0.722356 -0.0104822 0.0240216 -0.855339 0.722437 0 0.842789 -0.722354 -0.010626 1.20138e-006 -0.842723 0.722437 0 
-0.100328 -0.0601576 0.0520247 -2.5138e-013 7.43062e-008 -5.10919e-006 0 -0 0 0 -0 0 0 -0 0 -0.713203 0.288275 6.5079e-012 8.27208 -31.015 10.4644 -9.86857 -24.2564 -125.767 -7.17761 3.72125 -16.9043 -40.5316 -43.5896 103.283 -7.10789 -4.81548 2.69559 -7.40342 -2.98992 -6.72733 5.89092 0.508958 -5.4973 -5.3917 11.1257 1.19015 -12.1062 -9.35422 19.4153 3.33565 -41.2194 -1.46018 -4.49892 25.2741 -0.285357 17.7858 26.5266 117.609 -5.01758 -10.7974 8.3002 21.4551 48.126 81.5182 6.10958 32.1614 -11.4896 41.0518 9.47821 9.78807 -17.6268 33.6401 19.7816 15.3997 -26.4407 14.6278 61.4987 -1.7944 -46.871 -1.60731 110.014 -36.6568 0.808926 -0.72248 -0.0102008 0.0240216 -0.832883 0.722557 0 0.820332 -0.722478 -0.0103446 2.41484e-006 -0.820268 0.722557 0 
-0.100333 -0.0601517 0.0516117 8.8785e-014 7.08362e-008 -5.10924e-006 0 -0 0 0 -0 0 0 -0 0 -0.713158 0.288285 -4.64118e-012 8.27208 -31.015 10.4644 -9.86857 -24.2564 -125.767 -7.17761 3.72125 -16.9043 -40.5316 -43.5896 103.283 -7.10789 -4.81548 2.69559 -7.40342 -2.98992 -6.72733 5.89092 0.508958 -5.4973 -5.3917 11.1257 1.19015 -12.1062 -9.35422 19.4153 3.33565 -41.2194 -1.46018 -3.9298 25.0402 -1.54475 18.5902 26.9526 116.156 -4.75421 -11.0662 6.45466 25.4334 48.9669 87.8902 8.61246 35.466 -11.7551 42.3014 9.45962 10.0732 -17.9547 35.2218 20.1109 15.6742 -27.1868 16.7062 62.3445 -1.78383 -48.3994 -1.45931 111.173 -37.487 0.782912 -0.722146 -0.00986811 0.0240216 -0.806871 0.722219 0 0.794317 -0.722144 -0.0100119 1.70755e-006 -0.794256 0.722219 0 
-0.100334 -0.0601461 0.0511999 3.5961e-013 6.85234e-008 -5.10927e-006 0 -0 0 0 -0 0 0 -0 0 -0.713114 0.288273 2.32414e-012 8.27208 -31.015 10.4644 -9.86857 -24.2564 -125.767 -7.17761 3.72125 -16.9043 -40.5316 -43.5896 103.283 -7.10789 -4.81548 2.69559 -7.40342 -2.98992 -6.72733 5.89092 0.508958 -5.4973 -5.3917 11.1257 1.19015 -12.1062 -9.35422 19.4153 3.33565 -41.2194 -1.46018 -3.41996 24.7738 -2.78144 19.4811 27.3848 114.476 -4.40357 -11.0932 4.69393 31.2148 49.2645 111.053 10.076 28.6286 -11.9331 44.3739 9.25681 10.0083 -18.2408 37.6147 20.4124 15.5153 -28.2175 19.1185 63.7637 -2.65438 -50.5407 -1.25355 111.889 -37.4235 0.756975 -0.722074 -0.0095402 0.0240216 -0.780937 0.722142 0 0.768381 -0.722072 -0.00968394 2.41484e-006 -0.768322 0.722142 0 
-0.10034 -0.0601405 0.05078 4.47972e-014 6.73456e-008 -5.10929e-006 0 -0 0 0 -0 0 0 -0 0 -0.713069 0.28829 1.13617e-012 8.27208 -31.015 10.4644 -9.86857 -24.2564 -125.767 -7.17761 3.72125 -16.9043 -40.5316 -43.5896 103.283 -7.10789 -4.81548 2.69559 -7.40342 -2.98992 -6.72733 5.89092 0.508958 -5.4973 -5.3917 11.1257 1.19015 -12.1062 -9.35422 19.4153 3.33565 -41.2194 -1.46018 -2.94377 24.5427 -4.12794 20.4041 27.8211 112.593 -4.05228 -11.0712 2.93454 29.0745 52.405 148.859 13.1103 12.9693 -11.9626 46.4903 9.1129 9.72717 -18.3963 39.201 20.8567 15.4611 -29.3341 19.7361 66.0956 -4.1509 -52.2092 -1.17747 113.474 -39.8807 0.730528 -0.721708 -0.00920223 0.0240216 -0.754491 0.721772 0 0.741933 -0.721706 -0.00934589 1.70755e-006 -0.741876 0.721772 0 
-0.100353 -0.0601347 0.0503341 -1.26341e-012 6.49237e-008 -5.10932e-006 0 -0 0 0 -0 0 0 -0 0 -0.713021 0.288331 7.9438e-012 8.27208 -31.015 10.4644 -9.86857 -24.2564 -125.767 -7.17761 3.72125 -16.9043 -40.5316 -43.5896 103.283 -7.10789 -4.81548 2.69559 -7.40342 -2.98992 -6.72733 5.89092 0.508958 -5.4973 -5.3917 11.1257 1.19015 -12.1062 -9.35422 19.4153 3.33565 -41.2194 -1.46018 -2.41796 24.3565 -5.53487 21.2714 28.287 110.495 -3.68958 -10.935 1.28163 27.1019 52.4334 150.914 14.0877 12.1849 -11.9596 46.0548 9.11049 9.4092 -18.4156 38.7306 20.6774 15.6141 -29.3065 19.6838 66.2262 -4.89666 -52.2841 -1.17369 113.994 -40.5256 0.702445 -0.720917 -0.00883875 0.0240216 -0.726411 0.720976 0 0.713851 -0.720915 -0.00898226 8.79387e-007 -0.713795 0.720976 0 
-0.10037 -0.0601286 0.0498551 1.28434e-012 6.23195e-008 -5.10935e-006 0 -0 0 0 -0 0 0 -0 0 -0.712969 0.288391 5.46918e-012 8.27208 -31.015 10.4644 -9.86857 -24.2564 -125.767 -7.17761 3.72125 -16.9043 -40.5316 -43.5896 103.283 -7.10789 -4.81548 2.69559 -7.40342 -2.98992 -6.72733 5.89092 0.508958 -5.4973 -5.3917 11.1257 1.19015 -12.1062 -9.35422 19.4153 3.33565 -41.2194 -1.46018 -1.78285 24.1772 -7.02934 22.0197 28.8163 108.19 -3.33347 -10.7529 -0.315503 23.9 51.1088 111.823 9.46006 23.9335 -11.778 40.806 7.60105 8.4849 -18.4007 40.8887 21.5628 18.5807 -29.2576 23.0225 66.3819 -0.748396 -53.3764 -0.889926 118.61 -42.7953 0.67227 -0.719837 -0.0084464 0.0240216 -0.696238 0.719892 0 0.683675 -0.719835 -0.00858969 0 -0.683621 0.719892 0 
-0.100376 -0.060123 0.0493849 -4.83623e-013 5.95222e-008 -5.10938e-006 0 -0 0 0 -0 0 0 -0 0 -0.712921 0.288401 -2.97774e-012 8.27208 -31.015 10.4644 -9.86857 -24.2564 -125.767 -7.17761 3.72125 -16.9043 -40.5316 -43.5896 103.283 -7.10789 -4.81548 2.69559 -7.40342 -2.98992 -6.72733 5.89092 0.508958 -5.4973 -5.3917 11.1257 1.19015 -12.1062 -9.35422 19.4153 3.33565 -41.2194 -1.46018 -1.23749 23.9858 -8.50777 22.8948 29.3061 105.638 -2.8927 -10.5011 -1.92349 19.9282 54.9566 98.5008 13.9081 25.4854 -11.1833 26.2922 4.38143 5.41397 -14.1787 53.1866 48.7367 38.1757 -20.0561 46.7934 83.3287 15.6813 -39.164 27.4708 126.482 -35.546 0.642655 -0.719423 -0.00806951 0.0240216 -0.666626 0.719473 0 0.65406 -0.719421 -0.00821271 1.35919e-006 -0.654009 0.719473 0 
-0.100389 -0.0601176 0.0489153 -6.79984e-013 5.70361e-008 -5.10941e-006 0 -0 0 0 -0 0 0 -0 0 -0.712871 0.288437 1.31347e-011 8.27208 -31.015 10.4644 -9.86857 -24.2564 -125.767 -7.17761 3.72125 -16.9043 -40.5316 -43.5896 103.283 -7.10789 -4.81548 2.69559 -7.40342 -2.98992 -6.72733 5.89092 0.508958 -5.4973 -5.3917 11.1257 1.19015 -12.1062 -9.35422 19.4153 3.33565 -41.2194 -1.46018 -0.679418 23.8208 -9.95106 23.727 29.7938 102.871 -2.39327 -10.0734 -3.43521 29.3875 57.342 100.201 17.5918 26.7992 -10.7829 16.4437 4.06953 3.77001 -13.1121 55.3952 69.617 51.1974 -16.0985 55.3071 99.3468 16.7308 -33.5299 40.5268 134.01 -27.7983 0.613078 -0.718634 -0.00768986 0.0240216 -0.637052 0.71868 0 0.624483 -0.718632 -0.0078329 2.29489e-006 -0.624436 0.71868 0 
